<mxfile host="app.diagrams.net" agent="Mozilla/5.0 (X11; Ubuntu; Linux x86_64; rv:130.0) Gecko/20100101 Firefox/130.0" version="24.7.16">
  <diagram name="Page-1" id="W2H_7qVuaLhuUzYhboFh">
    <mxGraphModel dx="704" dy="311" grid="1" gridSize="10" guides="1" tooltips="1" connect="1" arrows="1" fold="1" page="1" pageScale="1" pageWidth="827" pageHeight="1169" math="0" shadow="0">
      <root>
        <mxCell id="0" />
        <mxCell id="1" parent="0" />
        <mxCell id="M92Hwxk4tEylSRKXpxI9-14" value="User" style="swimlane;fontStyle=1;align=center;verticalAlign=top;childLayout=stackLayout;horizontal=1;startSize=26;horizontalStack=0;resizeParent=1;resizeParentMax=0;resizeLast=0;collapsible=1;marginBottom=0;whiteSpace=wrap;html=1;strokeWidth=2;fontSize=14;labelBackgroundColor=none;fillColor=#21C0A5;strokeColor=#006658;fontColor=#5C5C5C;" vertex="1" parent="1">
          <mxGeometry x="400" y="200" width="160" height="346" as="geometry" />
        </mxCell>
        <mxCell id="M92Hwxk4tEylSRKXpxI9-15" value="+ first_name: string" style="text;align=left;verticalAlign=top;spacingLeft=4;spacingRight=4;overflow=hidden;rotatable=0;points=[[0,0.5],[1,0.5]];portConstraint=eastwest;whiteSpace=wrap;html=1;strokeWidth=2;fontSize=14;labelBackgroundColor=none;fontColor=#5C5C5C;" vertex="1" parent="M92Hwxk4tEylSRKXpxI9-14">
          <mxGeometry y="26" width="160" height="26" as="geometry" />
        </mxCell>
        <mxCell id="M92Hwxk4tEylSRKXpxI9-21" value="+ last_name: string" style="text;align=left;verticalAlign=top;spacingLeft=4;spacingRight=4;overflow=hidden;rotatable=0;points=[[0,0.5],[1,0.5]];portConstraint=eastwest;whiteSpace=wrap;html=1;strokeWidth=2;fontSize=14;labelBackgroundColor=none;fontColor=#5C5C5C;" vertex="1" parent="M92Hwxk4tEylSRKXpxI9-14">
          <mxGeometry y="52" width="160" height="26" as="geometry" />
        </mxCell>
        <mxCell id="M92Hwxk4tEylSRKXpxI9-19" value="+ email: string" style="text;align=left;verticalAlign=top;spacingLeft=4;spacingRight=4;overflow=hidden;rotatable=0;points=[[0,0.5],[1,0.5]];portConstraint=eastwest;whiteSpace=wrap;html=1;strokeWidth=2;fontSize=14;labelBackgroundColor=none;fontColor=#5C5C5C;" vertex="1" parent="M92Hwxk4tEylSRKXpxI9-14">
          <mxGeometry y="78" width="160" height="26" as="geometry" />
        </mxCell>
        <mxCell id="M92Hwxk4tEylSRKXpxI9-20" value="+ password: string" style="text;align=left;verticalAlign=top;spacingLeft=4;spacingRight=4;overflow=hidden;rotatable=0;points=[[0,0.5],[1,0.5]];portConstraint=eastwest;whiteSpace=wrap;html=1;strokeWidth=2;fontSize=14;labelBackgroundColor=none;fontColor=#5C5C5C;" vertex="1" parent="M92Hwxk4tEylSRKXpxI9-14">
          <mxGeometry y="104" width="160" height="26" as="geometry" />
        </mxCell>
        <mxCell id="M92Hwxk4tEylSRKXpxI9-23" value="+ profile_picture: string" style="text;align=left;verticalAlign=top;spacingLeft=4;spacingRight=4;overflow=hidden;rotatable=0;points=[[0,0.5],[1,0.5]];portConstraint=eastwest;whiteSpace=wrap;html=1;strokeWidth=2;fontSize=14;labelBackgroundColor=none;fontColor=#5C5C5C;" vertex="1" parent="M92Hwxk4tEylSRKXpxI9-14">
          <mxGeometry y="130" width="160" height="26" as="geometry" />
        </mxCell>
        <mxCell id="M92Hwxk4tEylSRKXpxI9-24" value="+ role: string" style="text;align=left;verticalAlign=top;spacingLeft=4;spacingRight=4;overflow=hidden;rotatable=0;points=[[0,0.5],[1,0.5]];portConstraint=eastwest;whiteSpace=wrap;html=1;strokeWidth=2;fontSize=14;labelBackgroundColor=none;fontColor=#5C5C5C;" vertex="1" parent="M92Hwxk4tEylSRKXpxI9-14">
          <mxGeometry y="156" width="160" height="26" as="geometry" />
        </mxCell>
        <mxCell id="M92Hwxk4tEylSRKXpxI9-25" value="+ created_at: string" style="text;align=left;verticalAlign=top;spacingLeft=4;spacingRight=4;overflow=hidden;rotatable=0;points=[[0,0.5],[1,0.5]];portConstraint=eastwest;whiteSpace=wrap;html=1;strokeWidth=2;fontSize=14;labelBackgroundColor=none;fontColor=#5C5C5C;" vertex="1" parent="M92Hwxk4tEylSRKXpxI9-14">
          <mxGeometry y="182" width="160" height="26" as="geometry" />
        </mxCell>
        <mxCell id="M92Hwxk4tEylSRKXpxI9-22" value="+ updated_at: string" style="text;align=left;verticalAlign=top;spacingLeft=4;spacingRight=4;overflow=hidden;rotatable=0;points=[[0,0.5],[1,0.5]];portConstraint=eastwest;whiteSpace=wrap;html=1;strokeWidth=2;fontSize=14;labelBackgroundColor=none;fontColor=#5C5C5C;" vertex="1" parent="M92Hwxk4tEylSRKXpxI9-14">
          <mxGeometry y="208" width="160" height="26" as="geometry" />
        </mxCell>
        <mxCell id="M92Hwxk4tEylSRKXpxI9-37" value="+ deleted_at: string" style="text;align=left;verticalAlign=top;spacingLeft=4;spacingRight=4;overflow=hidden;rotatable=0;points=[[0,0.5],[1,0.5]];portConstraint=eastwest;whiteSpace=wrap;html=1;strokeWidth=2;fontSize=14;labelBackgroundColor=none;fontColor=#5C5C5C;" vertex="1" parent="M92Hwxk4tEylSRKXpxI9-14">
          <mxGeometry y="234" width="160" height="26" as="geometry" />
        </mxCell>
        <mxCell id="M92Hwxk4tEylSRKXpxI9-16" value="" style="line;strokeWidth=2;align=left;verticalAlign=middle;spacingTop=-1;spacingLeft=3;spacingRight=3;rotatable=0;labelPosition=right;points=[];portConstraint=eastwest;fontSize=14;labelBackgroundColor=none;fillColor=#21C0A5;strokeColor=#006658;fontColor=#5C5C5C;" vertex="1" parent="M92Hwxk4tEylSRKXpxI9-14">
          <mxGeometry y="260" width="160" height="8" as="geometry" />
        </mxCell>
        <mxCell id="M92Hwxk4tEylSRKXpxI9-17" value="+ create(): any" style="text;align=left;verticalAlign=top;spacingLeft=4;spacingRight=4;overflow=hidden;rotatable=0;points=[[0,0.5],[1,0.5]];portConstraint=eastwest;whiteSpace=wrap;html=1;strokeWidth=2;fontSize=14;labelBackgroundColor=none;fontColor=#5C5C5C;" vertex="1" parent="M92Hwxk4tEylSRKXpxI9-14">
          <mxGeometry y="268" width="160" height="26" as="geometry" />
        </mxCell>
        <mxCell id="M92Hwxk4tEylSRKXpxI9-38" value="+ udpate: any" style="text;align=left;verticalAlign=top;spacingLeft=4;spacingRight=4;overflow=hidden;rotatable=0;points=[[0,0.5],[1,0.5]];portConstraint=eastwest;whiteSpace=wrap;html=1;strokeWidth=2;fontSize=14;labelBackgroundColor=none;fontColor=#5C5C5C;" vertex="1" parent="M92Hwxk4tEylSRKXpxI9-14">
          <mxGeometry y="294" width="160" height="26" as="geometry" />
        </mxCell>
        <mxCell id="M92Hwxk4tEylSRKXpxI9-39" value="+ delete(): any" style="text;align=left;verticalAlign=top;spacingLeft=4;spacingRight=4;overflow=hidden;rotatable=0;points=[[0,0.5],[1,0.5]];portConstraint=eastwest;whiteSpace=wrap;html=1;strokeWidth=2;fontSize=14;labelBackgroundColor=none;fontColor=#5C5C5C;" vertex="1" parent="M92Hwxk4tEylSRKXpxI9-14">
          <mxGeometry y="320" width="160" height="26" as="geometry" />
        </mxCell>
        <mxCell id="M92Hwxk4tEylSRKXpxI9-69" value="Board" style="swimlane;fontStyle=1;align=center;verticalAlign=top;childLayout=stackLayout;horizontal=1;startSize=26;horizontalStack=0;resizeParent=1;resizeParentMax=0;resizeLast=0;collapsible=1;marginBottom=0;whiteSpace=wrap;html=1;strokeWidth=2;fontSize=14;labelBackgroundColor=none;fillColor=#21C0A5;strokeColor=#006658;fontColor=#5C5C5C;" vertex="1" parent="1">
          <mxGeometry x="720" y="200" width="160" height="242" as="geometry" />
        </mxCell>
        <mxCell id="M92Hwxk4tEylSRKXpxI9-70" value="+ name: string" style="text;align=left;verticalAlign=top;spacingLeft=4;spacingRight=4;overflow=hidden;rotatable=0;points=[[0,0.5],[1,0.5]];portConstraint=eastwest;whiteSpace=wrap;html=1;strokeWidth=2;fontSize=14;labelBackgroundColor=none;fontColor=#5C5C5C;" vertex="1" parent="M92Hwxk4tEylSRKXpxI9-69">
          <mxGeometry y="26" width="160" height="26" as="geometry" />
        </mxCell>
        <mxCell id="M92Hwxk4tEylSRKXpxI9-71" value="+ status: string" style="text;align=left;verticalAlign=top;spacingLeft=4;spacingRight=4;overflow=hidden;rotatable=0;points=[[0,0.5],[1,0.5]];portConstraint=eastwest;whiteSpace=wrap;html=1;strokeWidth=2;fontSize=14;labelBackgroundColor=none;fontColor=#5C5C5C;" vertex="1" parent="M92Hwxk4tEylSRKXpxI9-69">
          <mxGeometry y="52" width="160" height="26" as="geometry" />
        </mxCell>
        <mxCell id="M92Hwxk4tEylSRKXpxI9-76" value="+ created_at: string" style="text;align=left;verticalAlign=top;spacingLeft=4;spacingRight=4;overflow=hidden;rotatable=0;points=[[0,0.5],[1,0.5]];portConstraint=eastwest;whiteSpace=wrap;html=1;strokeWidth=2;fontSize=14;labelBackgroundColor=none;fontColor=#5C5C5C;" vertex="1" parent="M92Hwxk4tEylSRKXpxI9-69">
          <mxGeometry y="78" width="160" height="26" as="geometry" />
        </mxCell>
        <mxCell id="M92Hwxk4tEylSRKXpxI9-77" value="+ updated_at: string" style="text;align=left;verticalAlign=top;spacingLeft=4;spacingRight=4;overflow=hidden;rotatable=0;points=[[0,0.5],[1,0.5]];portConstraint=eastwest;whiteSpace=wrap;html=1;strokeWidth=2;fontSize=14;labelBackgroundColor=none;fontColor=#5C5C5C;" vertex="1" parent="M92Hwxk4tEylSRKXpxI9-69">
          <mxGeometry y="104" width="160" height="26" as="geometry" />
        </mxCell>
        <mxCell id="M92Hwxk4tEylSRKXpxI9-78" value="+ deleted_at: string" style="text;align=left;verticalAlign=top;spacingLeft=4;spacingRight=4;overflow=hidden;rotatable=0;points=[[0,0.5],[1,0.5]];portConstraint=eastwest;whiteSpace=wrap;html=1;strokeWidth=2;fontSize=14;labelBackgroundColor=none;fontColor=#5C5C5C;" vertex="1" parent="M92Hwxk4tEylSRKXpxI9-69">
          <mxGeometry y="130" width="160" height="26" as="geometry" />
        </mxCell>
        <mxCell id="M92Hwxk4tEylSRKXpxI9-79" value="" style="line;strokeWidth=2;align=left;verticalAlign=middle;spacingTop=-1;spacingLeft=3;spacingRight=3;rotatable=0;labelPosition=right;points=[];portConstraint=eastwest;fontSize=14;labelBackgroundColor=none;fillColor=#21C0A5;strokeColor=#006658;fontColor=#5C5C5C;" vertex="1" parent="M92Hwxk4tEylSRKXpxI9-69">
          <mxGeometry y="156" width="160" height="8" as="geometry" />
        </mxCell>
        <mxCell id="M92Hwxk4tEylSRKXpxI9-80" value="+ create(): any" style="text;align=left;verticalAlign=top;spacingLeft=4;spacingRight=4;overflow=hidden;rotatable=0;points=[[0,0.5],[1,0.5]];portConstraint=eastwest;whiteSpace=wrap;html=1;strokeWidth=2;fontSize=14;labelBackgroundColor=none;fontColor=#5C5C5C;" vertex="1" parent="M92Hwxk4tEylSRKXpxI9-69">
          <mxGeometry y="164" width="160" height="26" as="geometry" />
        </mxCell>
        <mxCell id="M92Hwxk4tEylSRKXpxI9-81" value="+ udpate: any" style="text;align=left;verticalAlign=top;spacingLeft=4;spacingRight=4;overflow=hidden;rotatable=0;points=[[0,0.5],[1,0.5]];portConstraint=eastwest;whiteSpace=wrap;html=1;strokeWidth=2;fontSize=14;labelBackgroundColor=none;fontColor=#5C5C5C;" vertex="1" parent="M92Hwxk4tEylSRKXpxI9-69">
          <mxGeometry y="190" width="160" height="26" as="geometry" />
        </mxCell>
        <mxCell id="M92Hwxk4tEylSRKXpxI9-82" value="+ delete(): any" style="text;align=left;verticalAlign=top;spacingLeft=4;spacingRight=4;overflow=hidden;rotatable=0;points=[[0,0.5],[1,0.5]];portConstraint=eastwest;whiteSpace=wrap;html=1;strokeWidth=2;fontSize=14;labelBackgroundColor=none;fontColor=#5C5C5C;" vertex="1" parent="M92Hwxk4tEylSRKXpxI9-69">
          <mxGeometry y="216" width="160" height="26" as="geometry" />
        </mxCell>
        <mxCell id="M92Hwxk4tEylSRKXpxI9-83" value="Tasks" style="swimlane;fontStyle=1;align=center;verticalAlign=top;childLayout=stackLayout;horizontal=1;startSize=26;horizontalStack=0;resizeParent=1;resizeParentMax=0;resizeLast=0;collapsible=1;marginBottom=0;whiteSpace=wrap;html=1;strokeWidth=2;fontSize=14;labelBackgroundColor=none;fillColor=#21C0A5;strokeColor=#006658;fontColor=#5C5C5C;" vertex="1" parent="1">
          <mxGeometry x="720" y="530" width="160" height="242" as="geometry" />
        </mxCell>
        <mxCell id="M92Hwxk4tEylSRKXpxI9-84" value="+ content: string" style="text;align=left;verticalAlign=top;spacingLeft=4;spacingRight=4;overflow=hidden;rotatable=0;points=[[0,0.5],[1,0.5]];portConstraint=eastwest;whiteSpace=wrap;html=1;strokeWidth=2;fontSize=14;labelBackgroundColor=none;fontColor=#5C5C5C;" vertex="1" parent="M92Hwxk4tEylSRKXpxI9-83">
          <mxGeometry y="26" width="160" height="26" as="geometry" />
        </mxCell>
        <mxCell id="M92Hwxk4tEylSRKXpxI9-85" value="+ status: string" style="text;align=left;verticalAlign=top;spacingLeft=4;spacingRight=4;overflow=hidden;rotatable=0;points=[[0,0.5],[1,0.5]];portConstraint=eastwest;whiteSpace=wrap;html=1;strokeWidth=2;fontSize=14;labelBackgroundColor=none;fontColor=#5C5C5C;" vertex="1" parent="M92Hwxk4tEylSRKXpxI9-83">
          <mxGeometry y="52" width="160" height="26" as="geometry" />
        </mxCell>
        <mxCell id="M92Hwxk4tEylSRKXpxI9-86" value="+ created_at: string" style="text;align=left;verticalAlign=top;spacingLeft=4;spacingRight=4;overflow=hidden;rotatable=0;points=[[0,0.5],[1,0.5]];portConstraint=eastwest;whiteSpace=wrap;html=1;strokeWidth=2;fontSize=14;labelBackgroundColor=none;fontColor=#5C5C5C;" vertex="1" parent="M92Hwxk4tEylSRKXpxI9-83">
          <mxGeometry y="78" width="160" height="26" as="geometry" />
        </mxCell>
        <mxCell id="M92Hwxk4tEylSRKXpxI9-87" value="+ updated_at: string" style="text;align=left;verticalAlign=top;spacingLeft=4;spacingRight=4;overflow=hidden;rotatable=0;points=[[0,0.5],[1,0.5]];portConstraint=eastwest;whiteSpace=wrap;html=1;strokeWidth=2;fontSize=14;labelBackgroundColor=none;fontColor=#5C5C5C;" vertex="1" parent="M92Hwxk4tEylSRKXpxI9-83">
          <mxGeometry y="104" width="160" height="26" as="geometry" />
        </mxCell>
        <mxCell id="M92Hwxk4tEylSRKXpxI9-88" value="+ deleted_at: string" style="text;align=left;verticalAlign=top;spacingLeft=4;spacingRight=4;overflow=hidden;rotatable=0;points=[[0,0.5],[1,0.5]];portConstraint=eastwest;whiteSpace=wrap;html=1;strokeWidth=2;fontSize=14;labelBackgroundColor=none;fontColor=#5C5C5C;" vertex="1" parent="M92Hwxk4tEylSRKXpxI9-83">
          <mxGeometry y="130" width="160" height="26" as="geometry" />
        </mxCell>
        <mxCell id="M92Hwxk4tEylSRKXpxI9-89" value="" style="line;strokeWidth=2;align=left;verticalAlign=middle;spacingTop=-1;spacingLeft=3;spacingRight=3;rotatable=0;labelPosition=right;points=[];portConstraint=eastwest;fontSize=14;labelBackgroundColor=none;fillColor=#21C0A5;strokeColor=#006658;fontColor=#5C5C5C;" vertex="1" parent="M92Hwxk4tEylSRKXpxI9-83">
          <mxGeometry y="156" width="160" height="8" as="geometry" />
        </mxCell>
        <mxCell id="M92Hwxk4tEylSRKXpxI9-90" value="+ create(): any" style="text;align=left;verticalAlign=top;spacingLeft=4;spacingRight=4;overflow=hidden;rotatable=0;points=[[0,0.5],[1,0.5]];portConstraint=eastwest;whiteSpace=wrap;html=1;strokeWidth=2;fontSize=14;labelBackgroundColor=none;fontColor=#5C5C5C;" vertex="1" parent="M92Hwxk4tEylSRKXpxI9-83">
          <mxGeometry y="164" width="160" height="26" as="geometry" />
        </mxCell>
        <mxCell id="M92Hwxk4tEylSRKXpxI9-91" value="+ udpate: any" style="text;align=left;verticalAlign=top;spacingLeft=4;spacingRight=4;overflow=hidden;rotatable=0;points=[[0,0.5],[1,0.5]];portConstraint=eastwest;whiteSpace=wrap;html=1;strokeWidth=2;fontSize=14;labelBackgroundColor=none;fontColor=#5C5C5C;" vertex="1" parent="M92Hwxk4tEylSRKXpxI9-83">
          <mxGeometry y="190" width="160" height="26" as="geometry" />
        </mxCell>
        <mxCell id="M92Hwxk4tEylSRKXpxI9-92" value="+ delete(): any" style="text;align=left;verticalAlign=top;spacingLeft=4;spacingRight=4;overflow=hidden;rotatable=0;points=[[0,0.5],[1,0.5]];portConstraint=eastwest;whiteSpace=wrap;html=1;strokeWidth=2;fontSize=14;labelBackgroundColor=none;fontColor=#5C5C5C;" vertex="1" parent="M92Hwxk4tEylSRKXpxI9-83">
          <mxGeometry y="216" width="160" height="26" as="geometry" />
        </mxCell>
        <mxCell id="M92Hwxk4tEylSRKXpxI9-93" value="" style="endArrow=none;html=1;rounded=0;entryX=0;entryY=0.5;entryDx=0;entryDy=0;exitX=1;exitY=0.5;exitDx=0;exitDy=0;strokeWidth=2;fontSize=14;labelBackgroundColor=none;strokeColor=#006658;fontColor=default;" edge="1" parent="1" source="M92Hwxk4tEylSRKXpxI9-20" target="M92Hwxk4tEylSRKXpxI9-77">
          <mxGeometry width="50" height="50" relative="1" as="geometry">
            <mxPoint x="580" y="420" as="sourcePoint" />
            <mxPoint x="630" y="370" as="targetPoint" />
          </mxGeometry>
        </mxCell>
        <mxCell id="M92Hwxk4tEylSRKXpxI9-94" value="" style="endArrow=none;html=1;rounded=0;exitX=0.5;exitY=0;exitDx=0;exitDy=0;entryX=0.499;entryY=1.022;entryDx=0;entryDy=0;entryPerimeter=0;strokeWidth=2;fontSize=14;labelBackgroundColor=none;strokeColor=#006658;fontColor=default;" edge="1" parent="1" source="M92Hwxk4tEylSRKXpxI9-83" target="M92Hwxk4tEylSRKXpxI9-82">
          <mxGeometry width="50" height="50" relative="1" as="geometry">
            <mxPoint x="570" y="327" as="sourcePoint" />
            <mxPoint x="800" y="440" as="targetPoint" />
          </mxGeometry>
        </mxCell>
        <mxCell id="M92Hwxk4tEylSRKXpxI9-95" value="1" style="text;html=1;align=center;verticalAlign=middle;whiteSpace=wrap;rounded=0;strokeWidth=2;fontSize=14;labelBackgroundColor=none;fontColor=#5C5C5C;" vertex="1" parent="1">
          <mxGeometry x="560" y="290" width="20" height="20" as="geometry" />
        </mxCell>
        <mxCell id="M92Hwxk4tEylSRKXpxI9-96" value="*" style="text;html=1;align=center;verticalAlign=middle;whiteSpace=wrap;rounded=0;strokeWidth=2;fontSize=14;labelBackgroundColor=none;fontColor=#5C5C5C;" vertex="1" parent="1">
          <mxGeometry x="690" y="290" width="20" height="20" as="geometry" />
        </mxCell>
        <mxCell id="M92Hwxk4tEylSRKXpxI9-97" value="1" style="text;html=1;align=center;verticalAlign=middle;whiteSpace=wrap;rounded=0;strokeWidth=2;fontSize=14;labelBackgroundColor=none;fontColor=#5C5C5C;" vertex="1" parent="1">
          <mxGeometry x="800" y="442" width="20" height="20" as="geometry" />
        </mxCell>
        <mxCell id="M92Hwxk4tEylSRKXpxI9-98" value="*" style="text;html=1;align=center;verticalAlign=middle;whiteSpace=wrap;rounded=0;strokeWidth=2;fontSize=14;labelBackgroundColor=none;fontColor=#5C5C5C;" vertex="1" parent="1">
          <mxGeometry x="800" y="510" width="20" height="20" as="geometry" />
        </mxCell>
      </root>
    </mxGraphModel>
  </diagram>
</mxfile>
